<svg width="112" height="40" viewBox="0 0 112 40" fill="none" xmlns="http://www.w3.org/2000/svg">
<path d="M53.5944 8.06316V31.4316H50V8.06316H53.5944Z" fill="#000810"/>
<path d="M74.2363 22.3053C74.2363 22.9579 74.1943 23.5474 74.1102 24.0737H60.836C60.9411 25.4632 61.4561 26.5789 62.381 27.4211C63.3059 28.2632 64.441 28.6842 65.7862 28.6842C67.7201 28.6842 69.0864 27.8737 69.8852 26.2526H73.7634C73.2379 27.8526 72.2814 29.1684 70.8941 30.2C69.5278 31.2105 67.8252 31.7158 65.7862 31.7158C64.1257 31.7158 62.6332 31.3474 61.309 30.6105C60.0057 29.8526 58.9757 28.8 58.219 27.4526C57.4833 26.0842 57.1155 24.5053 57.1155 22.7158C57.1155 20.9263 57.4728 19.3579 58.1875 18.0105C58.9232 16.6421 59.9427 15.5895 61.2459 14.8526C62.5702 14.1158 64.0836 13.7474 65.7862 13.7474C67.4258 13.7474 68.8867 14.1053 70.1689 14.8211C71.4511 15.5368 72.4496 16.5474 73.1643 17.8526C73.879 19.1368 74.2363 20.6211 74.2363 22.3053ZM70.4842 21.1684C70.4632 19.8421 69.9903 18.7789 69.0654 17.9789C68.1405 17.1789 66.9949 16.7789 65.6286 16.7789C64.3884 16.7789 63.3269 17.1789 62.444 17.9789C61.5612 18.7579 61.0357 19.8211 60.8675 21.1684H70.4842Z" fill="#000810"/>
<path d="M84.4895 28.2105L89.4082 14.0316H93.2233L86.602 31.4316H82.3139L75.7241 14.0316H79.5708L84.4895 28.2105Z" fill="#000810"/>
<path d="M99.3456 19.4C97.1595 18.3053 96.0665 16.5789 96.0665 14.2211C96.0665 13.0842 96.3502 12.0421 96.9178 11.0947C97.4853 10.1474 98.3366 9.4 99.4717 8.85263C100.607 8.28421 101.994 8 103.634 8C105.252 8 106.629 8.28421 107.764 8.85263C108.92 9.4 109.782 10.1474 110.35 11.0947C110.917 12.0421 111.201 13.0842 111.201 14.2211C111.201 15.4 110.896 16.4421 110.287 17.3474C109.698 18.2316 108.91 18.9158 107.922 19.4C109.12 19.8421 110.066 20.5684 110.76 21.5789C111.453 22.5684 111.8 23.7368 111.8 25.0842C111.8 26.4526 111.453 27.6632 110.76 28.7158C110.066 29.7684 109.099 30.5789 107.859 31.1474C106.619 31.7158 105.21 32 103.634 32C102.057 32 100.649 31.7158 99.4087 31.1474C98.1895 30.5789 97.2331 29.7684 96.5394 28.7158C95.8458 27.6632 95.4989 26.4526 95.4989 25.0842C95.4989 23.7158 95.8458 22.5368 96.5394 21.5474C97.2331 20.5579 98.1685 19.8421 99.3456 19.4ZM107.764 14.6632C107.764 13.4842 107.396 12.5789 106.661 11.9474C105.925 11.3158 104.916 11 103.634 11C102.372 11 101.374 11.3158 100.638 11.9474C99.9026 12.5789 99.5348 13.4947 99.5348 14.6947C99.5348 15.7474 99.9131 16.6105 100.67 17.2842C101.448 17.9368 102.436 18.2632 103.634 18.2632C104.832 18.2632 105.82 17.9263 106.598 17.2526C107.375 16.5789 107.764 15.7158 107.764 14.6632ZM103.634 20.9789C102.246 20.9789 101.111 21.3263 100.228 22.0211C99.3666 22.6947 98.9357 23.6737 98.9357 24.9579C98.9357 26.1579 99.3561 27.1368 100.197 27.8947C101.038 28.6316 102.183 29 103.634 29C105.063 29 106.188 28.6211 107.007 27.8632C107.848 27.1053 108.269 26.1368 108.269 24.9579C108.269 23.6947 107.838 22.7158 106.976 22.0211C106.135 21.3263 105.021 20.9789 103.634 20.9789Z" fill="#000810"/>
<path d="M26.3639 0C33.8951 6.58394e-07 40.0003 6.10521 40.0003 13.6364C40.0003 21.1675 33.8951 27.2727 26.3639 27.2727H14.7275C13.623 27.2727 12.7275 26.3773 12.7275 25.2727V13.6364C12.7275 6.10521 18.8327 1.04448e-06 26.3639 0Z" fill="#000810"/>
<path d="M12.7273 33.6364C12.7273 37.1509 9.87818 40 6.36364 40C2.8491 40 0 37.1509 0 33.6364C0 30.1218 2.8491 27.2727 6.36364 27.2727H11.7273C12.2796 27.2727 12.7273 27.7204 12.7273 28.2727V33.6364Z" fill="#FFBB17"/>
</svg>
